# xmcd
#
# Track frame offsets:
#	150
#	18960
#	37752
#	55427
#	60687
#	73522
#	86832
#	109567
#	129400
#	145970
#	157037
#	172807
#	184810
#	203520
#	222722
#	236750
#
# Disc length: 3285
#
# Revision: 1
# Processed by: cddbd v1.5.1PL0 Copyright (c) Steve Scherf et al.
# Submitted via: CDex 1.50
# Normalized: r0:DSETVAR1,TDELIM( - )
#
DISCID=e10cd310
DTITLE=Various Artist - Danish Jazz In The 50's - Volume One
DYEAR=1994
DGENRE=Jazz
TTITLE0=Max Brüel Quartet - Stella By Starlight
TTITLE1=Max Brüel Quartet - Yesterdays
TTITLE2=Max Brüel Quartet - I Remember You
TTITLE3=Jørgen Ryg Quartet - Minute Foxtrot
TTITLE4=Jørgen Ryg Quartet - There'll Never Be Another You
TTITLE5=Jørgen Ryg Quartet - Mustafa
TTITLE6=Jørgen Ryg Quartet - Øbro 7997
TTITLE7=Ib Glindemann And His Orchestra - Royal Garden Blues
TTITLE8=Otto Francker Sextet - Deep Purple
TTITLE9=Otto Francker Sextet - I Cover The Waterfront
TTITLE10=Otto Francker Quintet - All Of Me
TTITLE11=Otto Francker Septet - Stompin' At Savoy
TTITLE12=Otto Francker Quintet - I Only Have Eyes For You
TTITLE13=Bertrand Bech Trio - Cheek To Cheek
TTITLE14=Peter Rasnussen And His Orchestra - I'm Beginning To See The Light
TTITLE15=Peter Rasnussen And His Orchestra - The Fox
EXTD=YEAR: 1994
EXTT0=
EXTT1=
EXTT2=
EXTT3=
EXTT4=
EXTT5=
EXTT6=
EXTT7=
EXTT8=
EXTT9=
EXTT10=
EXTT11=
EXTT12=
EXTT13=
EXTT14=
EXTT15=
PLAYORDER=
